<svg xmlns="http://www.w3.org/2000/svg" width="575.916" height="462.831" viewBox="0 0 575.916 462.831">
  <g id="Group-Copy-2" transform="translate(-2618.549 -2273.085)">
    <path id="Path" d="M2620.75,2316.029l35.679-38.529,35.679,38.529,35.679-38.529,35.679,38.529,35.679-38.529,35.679,38.529,35.68-38.529,35.679,38.529,35.68-38.529,35.679,38.529,35.68-38.529,35.679,38.529,35.68-38.529,35.679,38.529,35.68-38.529,35.679,38.529" fill="none" stroke="#f8fafe" stroke-width="6"/>
    <path id="Path-Copy" d="M2620.75,2408.029l35.72-38.529,35.719,38.529,35.719-38.529,35.72,38.529,35.719-38.529,35.719,38.529,35.72-38.529,35.72,38.529,35.719-38.529,35.719,38.529,35.72-38.529,35.72,38.529L3085.1,2369.5l35.72,38.529,35.72-38.529,35.719,38.529" transform="translate(0 -32.922)" fill="none" stroke="#f8fafe" stroke-width="6"/>
    <path id="Path-Copy-2" d="M2620.75,2501.029l35.72-38.529,35.719,38.529,35.719-38.529,35.72,38.529,35.719-38.529,35.719,38.529,35.72-38.529,35.72,38.529,35.719-38.529,35.719,38.529,35.72-38.529,35.72,38.529L3085.1,2462.5l35.72,38.529,35.72-38.529,35.719,38.529" transform="translate(0 -66.202)" fill="none" stroke="#f8fafe" stroke-width="6"/>
    <path id="Path-Copy-3" d="M2620.75,2593.029l35.72-38.529,35.719,38.529,35.719-38.529,35.72,38.529,35.719-38.529,35.719,38.529,35.72-38.529,35.72,38.529,35.719-38.529,35.719,38.529,35.72-38.529,35.72,38.529L3085.1,2554.5l35.72,38.529,35.72-38.529,35.719,38.529" transform="translate(0 -99.124)" fill="none" stroke="#f8fafe" stroke-width="6"/>
    <path id="Path-Copy-4" d="M2620.75,2686.029l35.72-38.529,35.719,38.529,35.719-38.529,35.72,38.529,35.719-38.529,35.719,38.529,35.72-38.529,35.72,38.529,35.719-38.529,35.719,38.529,35.72-38.529,35.72,38.529L3085.1,2647.5l35.72,38.529,35.72-38.529,35.719,38.529" transform="translate(0 -132.405)" fill="none" stroke="#f8fafe" stroke-width="6"/>
    <path id="Path-Copy-7" d="M2621.75,2778.029l35.679-38.529,35.679,38.529,35.679-38.529,35.679,38.529,35.679-38.529,35.679,38.529,35.679-38.529,35.679,38.529,35.679-38.529,35.679,38.529,35.679-38.529,35.679,38.529,35.679-38.529,35.679,38.529,35.679-38.529,35.679,38.529" transform="translate(-0.358 -165.327)" fill="none" stroke="#f8fafe" stroke-width="6"/>
    <path id="Path-Copy-6" d="M2621.75,2870.029l35.679-38.529,35.679,38.529,35.679-38.529,35.679,38.529,35.679-38.529,35.679,38.529,35.679-38.529,35.679,38.529,35.679-38.529,35.679,38.529,35.679-38.529,35.679,38.529,35.679-38.529,35.679,38.529,35.679-38.529,35.679,38.529" transform="translate(-0.358 -198.249)" fill="none" stroke="#f8fafe" stroke-width="6"/>
    <path id="Path-Copy-5" d="M2621.75,2963.029l35.679-38.529,35.679,38.529,35.679-38.529,35.679,38.529,35.679-38.529,35.679,38.529,35.679-38.529,35.679,38.529,35.679-38.529,35.679,38.529,35.679-38.529,35.679,38.529,35.679-38.529,35.679,38.529,35.679-38.529,35.679,38.529" transform="translate(-0.358 -231.529)" fill="none" stroke="#f8fafe" stroke-width="6"/>
  </g>
</svg>
